<svg width="70" height="70" viewBox="0 0 70 70" fill="none" xmlns="http://www.w3.org/2000/svg">
<circle cx="35" cy="35" r="35" fill="#7A3776" fill-opacity="0.51"/>
<g clip-path="url(#clip0_1_67)">
<path d="M17.0625 16.125C15.375 17.1875 15 20.5 15 34.9375C15 51.5 15.3125 53.3125 18.25 54.3125C20.8125 55.25 49.1875 55.25 51.75 54.3125C54.6875 53.3125 55 51.5 55 34.9375C55 20.5 54.625 17.1875 52.9375 16.125C51.9375 15.5 18.0625 15.5 17.0625 16.125ZM52.375 21.0625L52.5625 24.375H35.0625H17.5V21.375C17.5 19.6875 17.6875 18.125 17.9375 17.9375C18.1875 17.6875 25.9375 17.5625 35.25 17.625L52.1875 17.8125L52.375 21.0625ZM52.5 39.0625C52.5 51.0625 52.4375 51.875 51.3125 52.5C49.6875 53.375 20.3125 53.375 18.6875 52.5C17.5625 51.875 17.5 51.0625 17.5 39.0625V26.25H35H52.5V39.0625Z" fill="#390038"/>
<path d="M20.1875 20.75C20.3125 21.1875 20.8125 21.5625 21.25 21.5625C21.6875 21.5625 22.1875 21.1875 22.375 20.75C22.5 20.3125 22.0625 20 21.25 20C20.4375 20 20 20.3125 20.1875 20.75Z" fill="#390038"/>
<path d="M25.1875 20.75C25.3125 21.1875 25.8125 21.5625 26.25 21.5625C26.6875 21.5625 27.1875 21.1875 27.375 20.75C27.5 20.3125 27.0625 20 26.25 20C25.4375 20 25 20.3125 25.1875 20.75Z" fill="#390038"/>
<path d="M31.6875 32.375C30.25 33.9375 30.3125 37.6875 31.75 38.9375C33.3125 40.375 37.0625 40.3125 38.3125 38.875C39.75 37.3125 39.6875 33.5625 38.25 32.3125C36.6875 30.875 32.9375 30.9375 31.6875 32.375ZM37.1875 35.625C37.1875 37.6875 37.0625 37.8125 35 37.8125C33.1875 37.8125 32.75 37.5625 32.625 36.375C32.25 33.875 32.9375 33 35.125 33.25C37 33.4375 37.1875 33.625 37.1875 35.625Z" fill="#390038"/>
<path d="M30.875 43.6875C28.5625 44.75 26.25 47 26.25 48.25C26.25 49.25 28.125 48.6875 28.75 47.5625C29.0625 46.875 30.625 45.875 32.125 45.3125C35.375 44.0625 38.375 44.6875 40.75 47.1875C41.5625 48.0625 42.5625 48.75 43 48.75C45.125 48.75 42.375 45.1875 39.125 43.6875C35.875 42.25 34.125 42.25 30.875 43.6875Z" fill="#390038"/>
</g>
<defs>
<clipPath id="clip0_1_67">
<rect width="40" height="40" fill="white" transform="translate(15 15)"/>
</clipPath>
</defs>
</svg>
