<svg width="70" height="70" viewBox="0 0 70 70" fill="none" xmlns="http://www.w3.org/2000/svg">
<circle cx="35" cy="35" r="35" fill="#7A3776" fill-opacity="0.51"/>
<path d="M26.6667 16.25C20.9229 16.25 16.25 20.9229 16.25 26.6667V43.3333C16.25 49.0771 20.9229 53.75 26.6667 53.75H43.3333C49.0771 53.75 53.75 49.0771 53.75 43.3333V26.6667C53.75 20.9229 49.0771 16.25 43.3333 16.25H26.6667ZM26.6667 20.4167H43.3333C46.7792 20.4167 49.5833 23.2208 49.5833 26.6667V43.3333C49.5833 46.7792 46.7792 49.5833 43.3333 49.5833H26.6667C23.2208 49.5833 20.4167 46.7792 20.4167 43.3333V26.6667C20.4167 23.2208 23.2208 20.4167 26.6667 20.4167ZM45.4167 22.5C44.8641 22.5 44.3342 22.7195 43.9435 23.1102C43.5528 23.5009 43.3333 24.0308 43.3333 24.5833C43.3333 25.1359 43.5528 25.6658 43.9435 26.0565C44.3342 26.4472 44.8641 26.6667 45.4167 26.6667C45.9692 26.6667 46.4991 26.4472 46.8898 26.0565C47.2805 25.6658 47.5 25.1359 47.5 24.5833C47.5 24.0308 47.2805 23.5009 46.8898 23.1102C46.4991 22.7195 45.9692 22.5 45.4167 22.5ZM35 24.5833C29.2562 24.5833 24.5833 29.2562 24.5833 35C24.5833 40.7437 29.2562 45.4167 35 45.4167C40.7437 45.4167 45.4167 40.7437 45.4167 35C45.4167 29.2562 40.7437 24.5833 35 24.5833ZM35 28.75C38.4458 28.75 41.25 31.5542 41.25 35C41.25 38.4458 38.4458 41.25 35 41.25C31.5542 41.25 28.75 38.4458 28.75 35C28.75 31.5542 31.5542 28.75 35 28.75Z" fill="#390038"/>
</svg>
