<svg width="70" height="70" viewBox="0 0 70 70" fill="none" xmlns="http://www.w3.org/2000/svg">
<circle cx="35" cy="35" r="35" fill="#7A3776" fill-opacity="0.51"/>
<path d="M42.9166 20.8333C38.75 22.9167 31.25 25.4167 26.25 26.25C17.9166 27.7083 17.2916 28.3333 16.6666 34.5833C16.0416 40.2083 16.875 41.875 20.2083 42.7083C23.125 43.3333 24.5833 45.4167 24.5833 48.75C24.5833 51.4583 25.625 53.75 26.6666 53.75C27.9166 53.75 28.75 51.25 28.75 48.3333C28.75 43.9583 29.375 43.125 32.5 44.375C34.375 45.2083 37.9166 46.4583 40.2083 47.0833C42.5 47.5 46.0416 49.5833 48.125 51.25C50 52.9167 52.0833 53.9583 52.5 53.5417C54.7916 51.0417 54.5833 16.0417 52.2916 16.4583C51.25 16.6667 47.2916 18.5417 42.9166 20.8333ZM49.5833 35.2083C49.5833 44.1667 48.9583 45.625 46.25 44.5833C44.375 43.9583 40.625 42.7083 37.9166 42.0833C34.1666 41.0417 32.9166 39.375 32.9166 35C32.9166 30.4167 34.1666 28.9583 39.7916 27.0833C43.3333 26.0417 47.0833 25 48.125 24.7917C48.9583 24.5833 49.5833 29.375 49.5833 35.2083ZM28.75 35C28.75 37.7083 27.2916 39.1667 24.5833 39.1667C21.875 39.1667 20.4166 37.7083 20.4166 35C20.4166 32.2917 21.875 30.8333 24.5833 30.8333C27.2916 30.8333 28.75 32.2917 28.75 35Z" fill="#390038"/>
</svg>
