<svg width="60" height="60" viewBox="0 0 60 60" fill="none" xmlns="http://www.w3.org/2000/svg">
<path d="M16.6667 0C7.47667 0 0 7.47667 0 16.6667V43.3333C0 52.5233 7.47667 60 16.6667 60H43.3333C52.5233 60 60 52.5233 60 43.3333V16.6667C60 7.47667 52.5233 0 43.3333 0H16.6667ZM16.6667 6.66667H43.3333C48.8467 6.66667 53.3333 11.1533 53.3333 16.6667V43.3333C53.3333 48.8467 48.8467 53.3333 43.3333 53.3333H16.6667C11.1533 53.3333 6.66667 48.8467 6.66667 43.3333V16.6667C6.66667 11.1533 11.1533 6.66667 16.6667 6.66667ZM46.6667 10C45.7826 10 44.9348 10.3512 44.3096 10.9763C43.6845 11.6014 43.3333 12.4493 43.3333 13.3333C43.3333 14.2174 43.6845 15.0652 44.3096 15.6904C44.9348 16.3155 45.7826 16.6667 46.6667 16.6667C47.5507 16.6667 48.3986 16.3155 49.0237 15.6904C49.6488 15.0652 50 14.2174 50 13.3333C50 12.4493 49.6488 11.6014 49.0237 10.9763C48.3986 10.3512 47.5507 10 46.6667 10ZM30 13.3333C20.81 13.3333 13.3333 20.81 13.3333 30C13.3333 39.19 20.81 46.6667 30 46.6667C39.19 46.6667 46.6667 39.19 46.6667 30C46.6667 20.81 39.19 13.3333 30 13.3333ZM30 20C35.5133 20 40 24.4867 40 30C40 35.5133 35.5133 40 30 40C24.4867 40 20 35.5133 20 30C20 24.4867 24.4867 20 30 20Z" fill="#390038"/>
</svg>
