<svg width="68" height="60" viewBox="0 0 68 60" fill="none" xmlns="http://www.w3.org/2000/svg">
<path d="M62.5742 0.0390606C61.4663 -0.0784397 60.2621 0.0945814 59.0521 0.572915C57.5521 1.16291 34.048 11.0501 12.138 20.2734L4.89844 23.3203C2.0951 24.457 0.679688 26.3056 0.679688 28.7956C0.679688 30.5389 1.4175 32.9035 4.9375 34.2969L17.1576 39.1927C18.2142 42.3627 20.6685 49.723 21.2852 51.6797C21.6518 52.8397 22.578 55.762 24.918 56.4453C25.398 56.6086 25.8989 56.6927 26.4089 56.6927C27.8855 56.6927 28.9488 56.0055 29.4688 55.6055L37.2357 49.0365L46.6693 57.7604C47.0326 58.1304 48.9557 60 51.5391 60C54.7624 60 57.2075 57.3167 57.7174 54.7201C57.9941 53.2967 67.0925 7.62354 67.0925 7.63021C67.9091 3.96687 66.4407 2.06651 65.4974 1.25651C64.6891 0.564842 63.6821 0.156561 62.5742 0.0390606ZM60.3672 7.23958C59.1105 13.5396 52.2601 47.9274 51.2201 52.8841L37.431 40.1302L28.0755 48.0534L30.6667 37.9167C30.6667 37.9167 48.5418 19.8229 49.6185 18.7695C50.4852 17.9262 50.6667 17.6306 50.6667 17.3372C50.6667 16.9472 50.4659 16.6667 50.0026 16.6667C49.5859 16.6667 49.0201 17.0659 48.7201 17.2526C44.9089 19.6287 28.6803 28.8741 20.6927 33.418L9.10417 28.7891L14.7292 26.4258C29.0592 20.3924 54.5805 9.64625 60.3672 7.23958Z" fill="#390038"/>
</svg>
