<svg width="68" height="68" viewBox="0 0 68 68" fill="none" xmlns="http://www.w3.org/2000/svg">
<path d="M34.0391 0.666656C15.6857 0.666656 0.744953 15.5946 0.738286 33.9479C0.734953 39.8146 2.27157 45.5419 5.1849 50.5885L0.666672 67.3333L18.1081 63.2122C22.9714 65.8656 28.4462 67.2584 34.0195 67.2617H34.0326C52.3826 67.2617 67.3168 52.3305 67.3268 33.9805C67.3335 25.0838 63.8739 16.7191 57.5872 10.4258C51.3006 4.13577 42.9457 0.66999 34.0391 0.666656ZM34.0326 7.33332C41.1526 7.33666 47.8437 10.1126 52.8737 15.1393C57.9037 20.1726 60.6668 26.8606 60.6602 33.9739C60.6535 48.6539 48.7127 60.595 34.026 60.595C29.5827 60.5917 25.1814 59.476 21.3047 57.3594L19.0586 56.1354L16.5781 56.7213L10.0156 58.2708L11.6172 52.3203L12.3398 49.651L10.9596 47.2552C8.63297 43.2285 7.40162 38.6246 7.40495 33.9479C7.41162 19.2746 19.3559 7.33332 34.0326 7.33332ZM22.2552 18.5833C21.6985 18.5833 20.7985 18.7917 20.0352 19.625C19.2718 20.455 17.1185 22.4653 17.1185 26.5586C17.1185 30.6519 20.1003 34.6087 20.5169 35.1654C20.9303 35.7187 26.2725 44.3841 34.7292 47.7174C41.7558 50.4874 43.183 49.9408 44.7096 49.8008C46.2363 49.6641 49.6348 47.7923 50.3281 45.8489C51.0215 43.9056 51.0231 42.2339 50.8164 41.8906C50.6097 41.5439 50.0547 41.3372 49.2214 40.9206C48.3914 40.5039 44.3011 38.4954 43.5378 38.2187C42.7744 37.9421 42.2161 37.8021 41.6628 38.6354C41.1094 39.4687 39.5192 41.3373 39.0326 41.8906C38.5459 42.4473 38.0625 42.5221 37.2292 42.1055C36.3958 41.6855 33.7165 40.8047 30.5365 37.9713C28.0631 35.768 26.3942 33.0495 25.9076 32.2161C25.4242 31.3861 25.862 30.9303 26.2787 30.5169C26.652 30.1436 27.1055 29.5452 27.5221 29.0586C27.9355 28.5719 28.0788 28.2252 28.3555 27.6719C28.6321 27.1185 28.4905 26.6302 28.2839 26.2135C28.0772 25.7969 26.4588 21.6883 25.7188 20.0417C25.0954 18.6583 24.4371 18.6262 23.8438 18.6029C23.3604 18.5829 22.8085 18.5833 22.2552 18.5833Z" fill="#390038"/>
</svg>
